<svg width="588" height="588" viewBox="0 0 588 588" fill="none" xmlns="http://www.w3.org/2000/svg">
<path fill-rule="evenodd" clip-rule="evenodd" d="M516.072 4.5139C522.09 -1.50472 531.849 -1.50453 537.867 4.5139L582.742 49.3879C588.76 55.4067 588.76 65.1652 582.742 71.1838L360.297 293.627L582.742 516.073C588.76 522.091 588.76 531.85 582.742 537.868L537.868 582.741C531.85 588.76 522.091 588.76 516.073 582.741L293.627 360.296L71.1829 582.741C65.1643 588.76 55.4067 588.76 49.388 582.741L4.51396 537.868C-1.50471 531.85 -1.5046 522.091 4.51396 516.073L226.957 293.627L4.51396 71.1838C-1.50467 65.1652 -1.50451 55.4067 4.51396 49.3879L49.388 4.5139C55.4067 -1.50454 65.1653 -1.50472 71.1839 4.5139L293.627 226.957L516.072 4.5139Z" fill="#2D263D" fill-opacity="0.3"/>
</svg>
